<svg xmlns="http://www.w3.org/2000/svg" viewBox="0 0 36 36" id="about-dot-me"><path fill="#EFEFEF" d="M8.377 31.833c6.917 0 11.667 3.583 15 3.583S33.71 33.5 33.71 18.167 24.293.583 20.627.583c-17.167 0-24.5 31.25-12.25 31.25z"></path><path fill="#A4AFC1" d="m6.522 11.508 1.415-1.415.707.707-1.415 1.415zM2.457 15.573l1.414-1.414.707.707-1.414 1.414zM2.457 10.623l.707-.707 1.414 1.414-.707.707zM30.544 14.492c-.827 0-1.5-.673-1.5-1.5s.673-1.5 1.5-1.5 1.5.673 1.5 1.5-.672 1.5-1.5 1.5zm0-2a.5.5 0 1 0 0 1 .5.5 0 0 0 0-1z"></path><path d="M19 22h-1.5v-4.559c0-.75 0-1.884-2.33-1.884-1.172 0-1.874.496-2.354.928a.75.75 0 0 1-1.103-.11c-.161-.216-.589-.791-2.046-.791-.6 0-1.375.087-2.158.725V22h-1.5v-7.432a.75.75 0 0 1 .741-.818c.414 0 .759.336.759.75v.039c.818-.394 1.584-.455 2.158-.455 1.131 0 2.04.279 2.712.831a4.81 4.81 0 0 1 2.792-.857c1.747 0 3.83.587 3.83 3.384V22z"></path><path d="M11.565 15.927h1.5V22h-1.5zM25.5 22.75c-2.481 0-4.5-1.95-4.5-4.346 0-2.397 2.019-4.347 4.5-4.347s4.5 1.95 4.5 4.347a.75.75 0 0 1-.75.75h-6.645c.348 1.207 1.514 2.096 2.895 2.096a3.09 3.09 0 0 0 2.013-.736l.978 1.138A4.589 4.589 0 0 1 25.5 22.75zm-2.895-5.096h5.789c-.348-1.207-1.514-2.097-2.895-2.097s-2.546.89-2.894 2.097z"></path></svg>