<?xml version="1.0" standalone="no"?>
<!DOCTYPE svg PUBLIC "-//W3C//DTD SVG 20010904//EN"
 "http://www.w3.org/TR/2001/REC-SVG-20010904/DTD/svg10.dtd">
<svg version="1.0" xmlns="http://www.w3.org/2000/svg"
 width="492.000000pt" height="185.000000pt" viewBox="0 0 492.000000 185.000000"
 preserveAspectRatio="xMidYMid meet">

<g transform="translate(0.000000,185.000000) scale(0.100000,-0.100000)"
fill="#C0C0C0" stroke="none">
<path d="M1744 1695 c-27 -14 -429 -288 -894 -608 l-845 -583 -3 -182 -2 -182
60 0 c34 0 73 6 89 14 15 8 368 249 784 536 417 286 762 518 767 515 6 -4 10
-209 10 -556 0 -302 3 -549 7 -549 19 0 599 379 627 410 22 25 38 55 45 89 7
34 11 220 11 537 0 532 -1 538 -59 568 -25 13 -73 16 -289 16 -256 0 -258 0
-308 -25z"/>
<path d="M2739 1549 c-123 -94 -241 -187 -262 -207 -66 -64 -67 -73 -67 -629
0 -528 1 -537 49 -563 29 -15 616 -14 644 2 12 6 156 114 319 240 163 125 303
228 310 227 7 0 90 -99 183 -220 94 -121 181 -229 194 -240 22 -18 42 -19 323
-19 l300 0 -18 27 c-9 16 -145 191 -301 391 -157 200 -283 367 -281 371 2 5
180 145 396 311 l392 301 0 80 0 79 -169 0 c-93 0 -180 -4 -193 -9 -13 -5
-372 -277 -798 -605 l-775 -596 -5 609 c-3 335 -8 612 -11 616 -4 3 -107 -71
-230 -166z"/>
</g>
</svg>
